<svg id="icon__hexagon" width="15" height="16" viewBox="0 0 15 16" fill="none" xmlns="http://www.w3.org/2000/svg">
<path d="M12.8906 10.7717V5.22871C12.8902 5.14526 12.8677 5.0634 12.8256 4.99139C12.7834 4.91938 12.723 4.85977 12.6504 4.81855L7.72852 2.03535C7.65904 1.99524 7.58023 1.97412 7.5 1.97412C7.41977 1.97412 7.34096 1.99524 7.27148 2.03535L2.34961 4.81855C2.27704 4.85977 2.21662 4.91938 2.17444 4.99139C2.13227 5.0634 2.10982 5.14526 2.10938 5.22871V10.7717C2.10982 10.8551 2.13227 10.937 2.17444 11.009C2.21662 11.081 2.27704 11.1406 2.34961 11.1818L7.27148 13.965C7.34096 14.0052 7.41977 14.0263 7.5 14.0263C7.58023 14.0263 7.65904 14.0052 7.72852 13.965L12.6504 11.1818C12.723 11.1406 12.7834 11.081 12.8256 11.009C12.8677 10.937 12.8902 10.8551 12.8906 10.7717V10.7717Z" stroke="#6028FF" stroke-width="1.5" stroke-linecap="round" stroke-linejoin="round"/>
</svg>
