<svg id="icon__arrow" width="40" height="40" viewBox="0 0 40 40" fill="none" xmlns="http://www.w3.org/2000/svg">
<path d="M25.5942 9.00843C25.2037 8.6179 25.2037 7.98474 25.5942 7.59421C25.9847 7.20369 26.6179 7.20369 27.0084 7.59421L25.5942 9.00843ZM38 20L38.7071 19.2929L39.4142 20L38.7071 20.7071L38 20ZM27.0084 32.4058C26.6179 32.7963 25.9847 32.7963 25.5942 32.4058C25.2037 32.0153 25.2037 31.3821 25.5942 30.9916L27.0084 32.4058ZM27.0084 7.59421L38.7071 19.2929L37.2929 20.7071L25.5942 9.00843L27.0084 7.59421ZM38.7071 20.7071L27.0084 32.4058L25.5942 30.9916L37.2929 19.2929L38.7071 20.7071ZM38 21L0.793 21V19L38 19V21Z" fill="white"/>
</svg>
