<svg xmlns="http://www.w3.org/2000/svg" xmlns:xlink="http://www.w3.org/1999/xlink"><symbol id="icon__arrow" viewBox="0 0 40 40"><path d="M25.594 9.008a1 1 0 011.414-1.414l-1.414 1.414zM38 20l.707-.707.707.707-.707.707L38 20zM27.008 32.406a1 1 0 01-1.414-1.414l1.414 1.414zm0-24.812l11.7 11.699-1.415 1.414L25.594 9.008l1.414-1.414zm11.7 13.113l-11.7 11.699-1.414-1.414 11.699-11.7 1.414 1.415zM38 21H.793v-2H38v2z" fill="#fff"/></symbol><symbol id="icon__corner--purple" viewBox="0 0 11 11"><path d="M11 1H1v10" stroke="#6028FF" stroke-width="2"/></symbol><symbol id="icon__corner" viewBox="0 0 11 11"><path d="M11 1H1v10" stroke="#fff" stroke-width="2"/></symbol><symbol id="icon__hexagon" viewBox="0 0 15 16"><path d="M12.89 10.772V5.229a.475.475 0 00-.24-.41L7.73 2.035a.457.457 0 00-.458 0L2.35 4.82a.475.475 0 00-.24.41v5.543a.475.475 0 00.24.41l4.921 2.783a.456.456 0 00.458 0l4.921-2.783a.475.475 0 00.24-.41v0z" stroke="#6028FF" stroke-width="1.5" stroke-linecap="round" stroke-linejoin="round"/></symbol><symbol id="icon__quote" viewBox="0 0 48 48"><path d="M18.27 18h6L20 29.214h-6L18.27 18zm10 0h6L30 29.214h-6L28.27 18z" fill="#fff"/></symbol><view id="icon__arrow--down-view" viewBox="0 0 24 24"/>
<use href="#icon__arrow--down" width="24" height="24" x="0" y="0"/>

<view id="icon__default-view" viewBox="0 80 24 24"/>
<use href="#icon__default" width="24" height="24" x="0" y="80"/>
</svg>